{
    "accessors" : [
        {
            "bufferView" : 0, 
            "componentType" : 5123, 
            "count" : 1368, 
            "max" : [
                279
            ], 
            "min" : [
                0
            ], 
            "type" : "SCALAR"
        }, 
        {
            "bufferView" : 1, 
            "componentType" : 5126, 
            "count" : 280, 
            "max" : [
                0.059787847101688385, 
                0.1523425579071045, 
                0.1398375779390335
            ], 
            "min" : [
                -0.08335116505622864, 
                -0.10277426987886429, 
                -0.1582293063402176
            ], 
            "type" : "VEC3"
        }, 
        {
            "bufferView" : 2, 
            "componentType" : 5126, 
            "count" : 280, 
            "max" : [
                0.9977721571922302, 
                0.9835505485534668, 
                0.9983214735984802
            ], 
            "min" : [
                -0.999725341796875, 
                -0.999053955078125, 
                -0.9983214735984802
            ], 
            "type" : "VEC3"
        }, 
        {
            "bufferView" : 3, 
            "componentType" : 5126, 
            "count" : 280, 
            "max" : [
                0.9844138622283936, 
                0.9805915709584951
            ], 
            "min" : [
                0.6971486806869507, 
                0.015671074390411377
            ], 
            "type" : "VEC2"
        }
    ], 
    "asset" : {
        "generator" : "Khronos Blender glTF 2.0 exporter", 
        "version" : "2.0"
    }, 
    "bufferViews" : [
        {
            "buffer" : 0, 
            "byteLength" : 2736, 
            "byteOffset" : 0, 
            "target" : 34963
        }, 
        {
            "buffer" : 0, 
            "byteLength" : 3360, 
            "byteOffset" : 2736, 
            "target" : 34962
        }, 
        {
            "buffer" : 0, 
            "byteLength" : 3360, 
            "byteOffset" : 6096, 
            "target" : 34962
        }, 
        {
            "buffer" : 0, 
            "byteLength" : 2240, 
            "byteOffset" : 9456, 
            "target" : 34962
        }
    ], 
    "buffers" : [
        {
            "byteLength" : 11696, 
            "uri" : "data:application/octet-stream;base64,"
        }
    ], 
    "images" : [
        {
            "uri" : "avatar3mr.jpg"
        }, 
        {
            "uri" : "avatar3.jpg"
        }
    ], 
    "materials" : [
        {
            "name" : "Material", 
            "pbrMetallicRoughness" : {
                "baseColorTexture" : {
                    "index" : 1
                }, 
                "metallicRoughnessTexture" : {
                    "index" : 0
                }
            }
        }
    ], 
    "meshes" : [
        {
            "name" : "hand", 
            "primitives" : [
                {
                    "attributes" : {
                        "NORMAL" : 2, 
                        "POSITION" : 1, 
                        "TEXCOORD_0" : 3
                    }, 
                    "indices" : 0, 
                    "material" : 0
                }
            ]
        }
    ], 
    "nodes" : [
        {
            "mesh" : 0, 
            "name" : "hand-right"
        }
    ], 
    "samplers" : [
        {}
    ], 
    "scene" : 0, 
    "scenes" : [
        {
            "name" : "Scene", 
            "nodes" : [
                0
            ]
        }
    ], 
    "textures" : [
        {
            "sampler" : 0, 
            "source" : 0
        }, 
        {
            "sampler" : 0, 
            "source" : 1
        }
    ]
}
