{
    "accessors" : [
        {
            "bufferView" : 0, 
            "componentType" : 5123, 
            "count" : 6186, 
            "max" : [
                1207
            ], 
            "min" : [
                0
            ], 
            "type" : "SCALAR"
        }, 
        {
            "bufferView" : 1, 
            "componentType" : 5126, 
            "count" : 1208, 
            "max" : [
                0.12205855548381805, 
                0.2072305828332901, 
                0.1872611790895462
            ], 
            "min" : [
                -0.13131515681743622, 
                -0.3134787678718567, 
                -0.22338460385799408
            ], 
            "type" : "VEC3"
        }, 
        {
            "bufferView" : 2, 
            "componentType" : 5126, 
            "count" : 1208, 
            "max" : [
                0.9984435439109802, 
                1.0, 
                0.9979857802391052
            ], 
            "min" : [
                -0.9979857802391052, 
                -0.999908447265625, 
                -0.9998779296875
            ], 
            "type" : "VEC3"
        }, 
        {
            "bufferView" : 3, 
            "componentType" : 5126, 
            "count" : 1208, 
            "max" : [
                0.9915000200271606, 
                0.9852999998256564
            ], 
            "min" : [
                0.005799999926239252, 
                0.008800029754638672
            ], 
            "type" : "VEC2"
        }
    ], 
    "asset" : {
        "generator" : "Khronos Blender glTF 2.0 exporter", 
        "version" : "2.0"
    }, 
    "bufferViews" : [
        {
            "buffer" : 0, 
            "byteLength" : 12372, 
            "byteOffset" : 0, 
            "target" : 34963
        }, 
        {
            "buffer" : 0, 
            "byteLength" : 14496, 
            "byteOffset" : 12372, 
            "target" : 34962
        }, 
        {
            "buffer" : 0, 
            "byteLength" : 14496, 
            "byteOffset" : 26868, 
            "target" : 34962
        }, 
        {
            "buffer" : 0, 
            "byteLength" : 9664, 
            "byteOffset" : 41364, 
            "target" : 34962
        }
    ], 
    "buffers" : [
        {
            "byteLength" : 51028, 
            "uri" : "data:application/octet-stream;base64,"
        }
    ], 
    "extensionsRequired" : [
        "KHR_materials_pbrSpecularGlossiness"
    ], 
    "extensionsUsed" : [
        "KHR_materials_pbrSpecularGlossiness"
    ], 
    "images" : [
        {
            "uri" : "avatar4.jpg"
        }
    ], 
    "materials" : [
        {
            "extensions" : {
                "KHR_materials_pbrSpecularGlossiness" : {
                    "diffuseTexture" : {
                        "index" : 0
                    }, 
                    "glossinessFactor" : 0.0, 
                    "specularFactor" : [
                        0.0, 
                        0.0, 
                        0.0
                    ]
                }
            }, 
            "name" : "Material"
        }
    ], 
    "meshes" : [
        {
            "name" : "head", 
            "primitives" : [
                {
                    "attributes" : {
                        "NORMAL" : 2, 
                        "POSITION" : 1, 
                        "TEXCOORD_0" : 3
                    }, 
                    "indices" : 0, 
                    "material" : 0
                }
            ]
        }
    ], 
    "nodes" : [
        {
            "mesh" : 0, 
            "name" : "head"
        }
    ], 
    "samplers" : [
        {}
    ], 
    "scene" : 0, 
    "scenes" : [
        {
            "name" : "Scene", 
            "nodes" : [
                0
            ]
        }
    ], 
    "textures" : [
        {
            "sampler" : 0, 
            "source" : 0
        }
    ]
}
