{
    "accessors" : [
        {
            "bufferView" : 0, 
            "componentType" : 5121, 
            "count" : 384, 
            "max" : [
                84
            ], 
            "min" : [
                0
            ], 
            "type" : "SCALAR"
        }, 
        {
            "bufferView" : 1, 
            "componentType" : 5126, 
            "count" : 85, 
            "max" : [
                0.02712957374751568, 
                0.15009644627571106, 
                0.1353004276752472
            ], 
            "min" : [
                -0.06389541923999786, 
                -0.07623862475156784, 
                -0.2715941071510315
            ], 
            "type" : "VEC3"
        }, 
        {
            "bufferView" : 2, 
            "componentType" : 5126, 
            "count" : 85, 
            "max" : [
                0.9983519911766052, 
                0.8350474834442139, 
                0.9885555505752563
            ], 
            "min" : [
                -0.9944151043891907, 
                -0.8969389796257019, 
                -0.5231177806854248
            ], 
            "type" : "VEC3"
        }, 
        {
            "bufferView" : 3, 
            "componentType" : 5126, 
            "count" : 85, 
            "max" : [
                0.952106237411499, 
                0.5161312222480774
            ], 
            "min" : [
                0.5470900535583496, 
                0.1379833221435547
            ], 
            "type" : "VEC2"
        }
    ], 
    "asset" : {
        "generator" : "Khronos Blender glTF 2.0 exporter", 
        "version" : "2.0"
    }, 
    "bufferViews" : [
        {
            "buffer" : 0, 
            "byteLength" : 384, 
            "byteOffset" : 0, 
            "target" : 34963
        }, 
        {
            "buffer" : 0, 
            "byteLength" : 1020, 
            "byteOffset" : 384, 
            "target" : 34962
        }, 
        {
            "buffer" : 0, 
            "byteLength" : 1020, 
            "byteOffset" : 1404, 
            "target" : 34962
        }, 
        {
            "buffer" : 0, 
            "byteLength" : 680, 
            "byteOffset" : 2424, 
            "target" : 34962
        }
    ], 
    "buffers" : [
        {
            "byteLength" : 3104, 
            "uri" : "data:application/octet-stream;base64,"
        }
    ], 
    "extensionsRequired" : [
        "KHR_materials_pbrSpecularGlossiness"
    ], 
    "extensionsUsed" : [
        "KHR_materials_pbrSpecularGlossiness"
    ], 
    "images" : [
        {
            "uri" : "avatar4.jpg"
        }
    ], 
    "materials" : [
        {
            "extensions" : {
                "KHR_materials_pbrSpecularGlossiness" : {
                    "diffuseTexture" : {
                        "index" : 0
                    }, 
                    "glossinessFactor" : 0.0, 
                    "specularFactor" : [
                        0.0, 
                        0.0, 
                        0.0
                    ]
                }
            }, 
            "name" : "Material.002"
        }
    ], 
    "meshes" : [
        {
            "name" : "hand-left", 
            "primitives" : [
                {
                    "attributes" : {
                        "NORMAL" : 2, 
                        "POSITION" : 1, 
                        "TEXCOORD_0" : 3
                    }, 
                    "indices" : 0, 
                    "material" : 0
                }
            ]
        }
    ], 
    "nodes" : [
        {
            "mesh" : 0, 
            "name" : "hand-left"
        }
    ], 
    "samplers" : [
        {}
    ], 
    "scene" : 0, 
    "scenes" : [
        {
            "name" : "Scene", 
            "nodes" : [
                0
            ]
        }
    ], 
    "textures" : [
        {
            "sampler" : 0, 
            "source" : 0
        }
    ]
}
