{
    "accessors" : [
        {
            "bufferView" : 0, 
            "componentType" : 5123, 
            "count" : 4566, 
            "max" : [
                851
            ], 
            "min" : [
                0
            ], 
            "type" : "SCALAR"
        }, 
        {
            "bufferView" : 1, 
            "componentType" : 5126, 
            "count" : 852, 
            "max" : [
                0.1482810378074646, 
                0.2661992609500885, 
                0.17427439987659454
            ], 
            "min" : [
                -0.1482810378074646, 
                -0.19590233266353607, 
                -0.28808584809303284
            ], 
            "type" : "VEC3"
        }, 
        {
            "bufferView" : 2, 
            "componentType" : 5126, 
            "count" : 852, 
            "max" : [
                0.999908447265625, 
                0.999359130859375, 
                0.9998779296875
            ], 
            "min" : [
                -0.999908447265625, 
                -0.999908447265625, 
                -0.999969482421875
            ], 
            "type" : "VEC3"
        }, 
        {
            "bufferView" : 3, 
            "componentType" : 5126, 
            "count" : 852, 
            "max" : [
                0.616283118724823, 
                0.9884841162711382
            ], 
            "min" : [
                0.009276766330003738, 
                0.056956589221954346
            ], 
            "type" : "VEC2"
        }
    ], 
    "asset" : {
        "generator" : "Khronos Blender glTF 2.0 exporter", 
        "version" : "2.0"
    }, 
    "bufferViews" : [
        {
            "buffer" : 0, 
            "byteLength" : 9132, 
            "byteOffset" : 0, 
            "target" : 34963
        }, 
        {
            "buffer" : 0, 
            "byteLength" : 10224, 
            "byteOffset" : 9132, 
            "target" : 34962
        }, 
        {
            "buffer" : 0, 
            "byteLength" : 10224, 
            "byteOffset" : 19356, 
            "target" : 34962
        }, 
        {
            "buffer" : 0, 
            "byteLength" : 6816, 
            "byteOffset" : 29580, 
            "target" : 34962
        }
    ], 
    "buffers" : [
        {
            "byteLength" : 36396, 
            "uri" : "data:application/octet-stream;base64,"
        }
    ], 
    "extensionsRequired" : [
        "KHR_materials_pbrSpecularGlossiness"
    ], 
    "extensionsUsed" : [
        "KHR_materials_pbrSpecularGlossiness"
    ], 
    "images" : [
        {
            "uri" : "avatar1.jpg"
        }
    ], 
    "materials" : [
        {
            "extensions" : {
                "KHR_materials_pbrSpecularGlossiness" : {
                    "diffuseTexture" : {
                        "index" : 0
                    }, 
                    "glossinessFactor" : 0.0, 
                    "specularFactor" : [
                        0.0, 
                        0.0, 
                        0.0
                    ]
                }
            }, 
            "name" : "Material.003"
        }
    ], 
    "meshes" : [
        {
            "name" : "head", 
            "primitives" : [
                {
                    "attributes" : {
                        "NORMAL" : 2, 
                        "POSITION" : 1, 
                        "TEXCOORD_0" : 3
                    }, 
                    "indices" : 0, 
                    "material" : 0
                }
            ]
        }
    ], 
    "nodes" : [
        {
            "mesh" : 0, 
            "name" : "head"
        }
    ], 
    "samplers" : [
        {}
    ], 
    "scene" : 0, 
    "scenes" : [
        {
            "name" : "Scene", 
            "nodes" : [
                0
            ]
        }
    ], 
    "textures" : [
        {
            "sampler" : 0, 
            "source" : 0
        }
    ]
}
