{
    "accessors" : [
        {
            "bufferView" : 0, 
            "componentType" : 5123, 
            "count" : 3024, 
            "max" : [
                666
            ], 
            "min" : [
                0
            ], 
            "type" : "SCALAR"
        }, 
        {
            "bufferView" : 1, 
            "componentType" : 5126, 
            "count" : 667, 
            "max" : [
                0.07415767014026642, 
                0.07624080032110214, 
                0.16698318719863892
            ], 
            "min" : [
                -0.07891868054866791, 
                -0.10953958332538605, 
                -0.20179960131645203
            ], 
            "type" : "VEC3"
        }, 
        {
            "bufferView" : 2, 
            "componentType" : 5126, 
            "count" : 667, 
            "max" : [
                0.999481201171875, 
                0.99981689453125, 
                0.9948728680610657
            ], 
            "min" : [
                -0.999847412109375, 
                -0.999847412109375, 
                -0.999481201171875
            ], 
            "type" : "VEC3"
        }, 
        {
            "bufferView" : 3, 
            "componentType" : 5126, 
            "count" : 667, 
            "max" : [
                0.9790799617767334, 
                0.986406397074461
            ], 
            "min" : [
                0.17495489120483398, 
                0.011707484722137451
            ], 
            "type" : "VEC2"
        }
    ], 
    "asset" : {
        "generator" : "Khronos Blender glTF 2.0 exporter", 
        "version" : "2.0"
    }, 
    "bufferViews" : [
        {
            "buffer" : 0, 
            "byteLength" : 6048, 
            "byteOffset" : 0, 
            "target" : 34963
        }, 
        {
            "buffer" : 0, 
            "byteLength" : 8004, 
            "byteOffset" : 6048, 
            "target" : 34962
        }, 
        {
            "buffer" : 0, 
            "byteLength" : 8004, 
            "byteOffset" : 14052, 
            "target" : 34962
        }, 
        {
            "buffer" : 0, 
            "byteLength" : 5336, 
            "byteOffset" : 22056, 
            "target" : 34962
        }
    ], 
    "buffers" : [
        {
            "byteLength" : 27392, 
            "uri" : "data:application/octet-stream;base64,"
        }
    ], 
    "extensionsRequired" : [
        "KHR_materials_pbrSpecularGlossiness"
    ], 
    "extensionsUsed" : [
        "KHR_materials_pbrSpecularGlossiness"
    ], 
    "images" : [
        {
            "uri" : "avatar1.jpg"
        }
    ], 
    "materials" : [
        {
            "extensions" : {
                "KHR_materials_pbrSpecularGlossiness" : {
                    "diffuseTexture" : {
                        "index" : 0
                    }, 
                    "glossinessFactor" : 0.0, 
                    "specularFactor" : [
                        0.0, 
                        0.0, 
                        0.0
                    ]
                }
            }, 
            "name" : "Material.003"
        }
    ], 
    "meshes" : [
        {
            "name" : "hand-left", 
            "primitives" : [
                {
                    "attributes" : {
                        "NORMAL" : 2, 
                        "POSITION" : 1, 
                        "TEXCOORD_0" : 3
                    }, 
                    "indices" : 0, 
                    "material" : 0
                }
            ]
        }
    ], 
    "nodes" : [
        {
            "mesh" : 0, 
            "name" : "hand-left"
        }
    ], 
    "samplers" : [
        {}
    ], 
    "scene" : 0, 
    "scenes" : [
        {
            "name" : "Scene", 
            "nodes" : [
                0
            ]
        }
    ], 
    "textures" : [
        {
            "sampler" : 0, 
            "source" : 0
        }
    ]
}
