{
    "accessors" : [
        {
            "bufferView" : 0, 
            "componentType" : 5123, 
            "count" : 3714, 
            "max" : [
                854
            ], 
            "min" : [
                0
            ], 
            "type" : "SCALAR"
        }, 
        {
            "bufferView" : 1, 
            "componentType" : 5126, 
            "count" : 855, 
            "max" : [
                0.06450679153203964, 
                0.15722627937793732, 
                0.16683293879032135
            ], 
            "min" : [
                -0.07287946343421936, 
                -0.1122676432132721, 
                -0.09117833524942398
            ], 
            "type" : "VEC3"
        }, 
        {
            "bufferView" : 2, 
            "componentType" : 5126, 
            "count" : 855, 
            "max" : [
                0.99993896484375, 
                0.999725341796875, 
                0.999420166015625
            ], 
            "min" : [
                -0.9996337890625, 
                -0.999786376953125, 
                -0.999725341796875
            ], 
            "type" : "VEC3"
        }, 
        {
            "bufferView" : 3, 
            "componentType" : 5126, 
            "count" : 855, 
            "max" : [
                0.985899031162262, 
                0.669718325138092
            ], 
            "min" : [
                0.018246237188577652, 
                0.0008208751678466797
            ], 
            "type" : "VEC2"
        }
    ], 
    "asset" : {
        "generator" : "Khronos Blender glTF 2.0 exporter", 
        "version" : "2.0"
    }, 
    "bufferViews" : [
        {
            "buffer" : 0, 
            "byteLength" : 7428, 
            "byteOffset" : 0, 
            "target" : 34963
        }, 
        {
            "buffer" : 0, 
            "byteLength" : 10260, 
            "byteOffset" : 7428, 
            "target" : 34962
        }, 
        {
            "buffer" : 0, 
            "byteLength" : 10260, 
            "byteOffset" : 17688, 
            "target" : 34962
        }, 
        {
            "buffer" : 0, 
            "byteLength" : 6840, 
            "byteOffset" : 27948, 
            "target" : 34962
        }
    ], 
    "buffers" : [
        {
            "byteLength" : 34788, 
            "uri" : "data:application/octet-stream;base64,"
        }
    ], 
    "extensionsRequired" : [
        "KHR_materials_pbrSpecularGlossiness"
    ], 
    "extensionsUsed" : [
        "KHR_materials_pbrSpecularGlossiness"
    ], 
    "images" : [
        {
            "uri" : "avatar1.jpg"
        }
    ], 
    "materials" : [
        {
            "extensions" : {
                "KHR_materials_pbrSpecularGlossiness" : {
                    "diffuseTexture" : {
                        "index" : 0
                    }, 
                    "glossinessFactor" : 0.0, 
                    "specularFactor" : [
                        0.0, 
                        0.0, 
                        0.0
                    ]
                }
            }, 
            "name" : "Material.003"
        }
    ], 
    "meshes" : [
        {
            "name" : "hand-right", 
            "primitives" : [
                {
                    "attributes" : {
                        "NORMAL" : 2, 
                        "POSITION" : 1, 
                        "TEXCOORD_0" : 3
                    }, 
                    "indices" : 0, 
                    "material" : 0
                }
            ]
        }
    ], 
    "nodes" : [
        {
            "mesh" : 0, 
            "name" : "hand-right"
        }
    ], 
    "samplers" : [
        {}
    ], 
    "scene" : 0, 
    "scenes" : [
        {
            "name" : "Scene", 
            "nodes" : [
                0
            ]
        }
    ], 
    "textures" : [
        {
            "sampler" : 0, 
            "source" : 0
        }
    ]
}
