{
    "accessors" : [
        {
            "bufferView" : 0, 
            "componentType" : 5123, 
            "count" : 3228, 
            "max" : [
                654
            ], 
            "min" : [
                0
            ], 
            "type" : "SCALAR"
        }, 
        {
            "bufferView" : 1, 
            "componentType" : 5126, 
            "count" : 655, 
            "max" : [
                0.05397937819361687, 
                0.0644400492310524, 
                0.1845930516719818
            ], 
            "min" : [
                -0.04422030225396156, 
                -0.15644431114196777, 
                -0.1936364769935608
            ], 
            "type" : "VEC3"
        }, 
        {
            "bufferView" : 2, 
            "componentType" : 5126, 
            "count" : 655, 
            "max" : [
                0.999725341796875, 
                0.9996337890625, 
                0.9619128704071045
            ], 
            "min" : [
                -0.999603271484375, 
                -0.999847412109375, 
                -0.9959715604782104
            ], 
            "type" : "VEC3"
        }, 
        {
            "bufferView" : 3, 
            "componentType" : 5126, 
            "count" : 655, 
            "max" : [
                0.971471905708313, 
                0.9911679085344076
            ], 
            "min" : [
                0.010193854570388794, 
                0.05507969856262207
            ], 
            "type" : "VEC2"
        }
    ], 
    "asset" : {
        "generator" : "Khronos Blender glTF 2.0 exporter", 
        "version" : "2.0"
    }, 
    "bufferViews" : [
        {
            "buffer" : 0, 
            "byteLength" : 6456, 
            "byteOffset" : 0, 
            "target" : 34963
        }, 
        {
            "buffer" : 0, 
            "byteLength" : 7860, 
            "byteOffset" : 6456, 
            "target" : 34962
        }, 
        {
            "buffer" : 0, 
            "byteLength" : 7860, 
            "byteOffset" : 14316, 
            "target" : 34962
        }, 
        {
            "buffer" : 0, 
            "byteLength" : 5240, 
            "byteOffset" : 22176, 
            "target" : 34962
        }
    ], 
    "buffers" : [
        {
            "byteLength" : 27416, 
            "uri" : "data:application/octet-stream;base64,"
        }
    ], 
    "images" : [
        {
            "uri" : "avatar2.jpg"
        }, 
        {
            "uri" : "avatar2mr.jpg"
        }
    ], 
    "materials" : [
        {
            "name" : "Material", 
            "pbrMetallicRoughness" : {
                "baseColorTexture" : {
                    "index" : 0
                }, 
                "metallicRoughnessTexture" : {
                    "index" : 1
                }
            }
        }
    ], 
    "meshes" : [
        {
            "name" : "hand.001", 
            "primitives" : [
                {
                    "attributes" : {
                        "NORMAL" : 2, 
                        "POSITION" : 1, 
                        "TEXCOORD_0" : 3
                    }, 
                    "indices" : 0, 
                    "material" : 0
                }
            ]
        }
    ], 
    "nodes" : [
        {
            "mesh" : 0, 
            "name" : "hand-left"
        }
    ], 
    "samplers" : [
        {}
    ], 
    "scene" : 0, 
    "scenes" : [
        {
            "name" : "Scene", 
            "nodes" : [
                0
            ]
        }
    ], 
    "textures" : [
        {
            "sampler" : 0, 
            "source" : 0
        }, 
        {
            "sampler" : 0, 
            "source" : 1
        }
    ]
}
