{
    "accessors" : [
        {
            "bufferView" : 0, 
            "componentType" : 5123, 
            "count" : 5370, 
            "max" : [
                1038
            ], 
            "min" : [
                0
            ], 
            "type" : "SCALAR"
        }, 
        {
            "bufferView" : 1, 
            "componentType" : 5126, 
            "count" : 1039, 
            "max" : [
                0.279092937707901, 
                0.44566208124160767, 
                0.4079616367816925
            ], 
            "min" : [
                -0.29381611943244934, 
                -0.16097581386566162, 
                -0.1510312408208847
            ], 
            "type" : "VEC3"
        }, 
        {
            "bufferView" : 2, 
            "componentType" : 5126, 
            "count" : 1039, 
            "max" : [
                0.9988707900047302, 
                1.0, 
                0.999664306640625
            ], 
            "min" : [
                -0.9988707900047302, 
                -1.0, 
                -1.0
            ], 
            "type" : "VEC3"
        }, 
        {
            "bufferView" : 3, 
            "componentType" : 5126, 
            "count" : 1039, 
            "max" : [
                0.9760222434997559, 
                0.9743037223815918
            ], 
            "min" : [
                0.0165450070053339, 
                0.012228667736053467
            ], 
            "type" : "VEC2"
        }
    ], 
    "asset" : {
        "generator" : "Khronos Blender glTF 2.0 exporter", 
        "version" : "2.0"
    }, 
    "bufferViews" : [
        {
            "buffer" : 0, 
            "byteLength" : 10740, 
            "byteOffset" : 0, 
            "target" : 34963
        }, 
        {
            "buffer" : 0, 
            "byteLength" : 12468, 
            "byteOffset" : 10740, 
            "target" : 34962
        }, 
        {
            "buffer" : 0, 
            "byteLength" : 12468, 
            "byteOffset" : 23208, 
            "target" : 34962
        }, 
        {
            "buffer" : 0, 
            "byteLength" : 8312, 
            "byteOffset" : 35676, 
            "target" : 34962
        }
    ], 
    "buffers" : [
        {
            "byteLength" : 43988, 
            "uri" : "data:application/octet-stream;base64,"
        }
    ], 
    "images" : [
        {
            "uri" : "avatar2.jpg"
        }, 
        {
            "uri" : "avatar2mr.jpg"
        }
    ], 
    "materials" : [
        {
            "name" : "Material", 
            "pbrMetallicRoughness" : {
                "baseColorTexture" : {
                    "index" : 0
                }, 
                "metallicRoughnessTexture" : {
                    "index" : 1
                }
            }
        }
    ], 
    "meshes" : [
        {
            "name" : "head", 
            "primitives" : [
                {
                    "attributes" : {
                        "NORMAL" : 2, 
                        "POSITION" : 1, 
                        "TEXCOORD_0" : 3
                    }, 
                    "indices" : 0, 
                    "material" : 0
                }
            ]
        }
    ], 
    "nodes" : [
        {
            "mesh" : 0, 
            "name" : "head"
        }
    ], 
    "samplers" : [
        {}
    ], 
    "scene" : 0, 
    "scenes" : [
        {
            "name" : "Scene", 
            "nodes" : [
                0
            ]
        }
    ], 
    "textures" : [
        {
            "sampler" : 0, 
            "source" : 0
        }, 
        {
            "sampler" : 0, 
            "source" : 1
        }
    ]
}
